<?xml version="1.0" encoding="UTF-8"?>
<svg version="1.1" xmlns="http://www.w3.org/2000/svg" width="951" height="294">
<path d="M0 0 C313.83 0 627.66 0 951 0 C951 97.02 951 194.04 951 294 C637.17 294 323.34 294 0 294 C0 196.98 0 99.96 0 0 Z " fill="#FEFEFE" transform="translate(0,0)"/>
<path d="M0 0 C0.65582565 0.26930328 1.31165131 0.53860657 1.98735046 0.81607056 C2.6752919 1.11524384 3.36323334 1.41441711 4.07202148 1.72265625 C4.82034744 2.03431732 5.5686734 2.34597839 6.3396759 2.66708374 C8.79644834 3.69357506 11.24448753 4.73940361 13.69311523 5.78515625 C15.42311613 6.51143234 17.15375984 7.23617895 18.88500977 7.95947266 C22.49074079 9.46734413 26.09360059 10.98179451 29.69458008 12.50097656 C37.45294238 15.76836702 45.24288139 18.95843731 53.03375244 22.14733887 C55.49206074 23.15460245 57.9489532 24.16524939 60.40551758 25.17675781 C67.58136658 28.12830318 74.7638167 31.05465398 81.99389648 33.87109375 C83.16194824 34.32822754 84.33 34.78536133 85.53344727 35.25634766 C87.64402039 36.0780499 89.75803912 36.89098565 91.8762207 37.69287109 C100.3238648 40.98096557 100.3238648 40.98096557 103.13061523 44.78515625 C104.10129012 47.69718092 104.26058621 49.56156448 104.27105713 52.5920105 C104.27676727 53.58177887 104.28247742 54.57154724 104.2883606 55.59130859 C104.29003738 57.21842773 104.29003738 57.21842773 104.29174805 58.87841797 C104.29671295 60.02174591 104.30167786 61.16507385 104.30679321 62.3430481 C104.32142495 66.13365272 104.32821818 69.9242155 104.33374023 73.71484375 C104.33949039 76.34416709 104.34524814 78.97349041 104.35101318 81.60281372 C104.36058318 86.41379058 104.36648096 91.22475839 104.36950994 96.03574359 C104.37399104 103.11397096 104.39154293 110.19200525 104.42051053 117.27017391 C104.44473906 123.40349692 104.45245457 129.53674026 104.45418549 135.6701088 C104.45721638 138.27844418 104.46525953 140.88677866 104.47837067 143.49508286 C104.49539191 147.14123997 104.49356032 150.78692494 104.48706055 154.43310547 C104.49627533 155.5138031 104.50549011 156.59450073 104.51498413 157.70794678 C104.46318359 166.96656686 104.46318359 166.96656686 101.13061523 170.78515625 C96.41790865 173.88816255 91.43699195 176.04591353 86.21655273 178.1484375 C85.46111679 178.45726364 84.70568085 178.76608978 83.92735291 179.08427429 C81.45533282 180.09345221 78.98054065 181.09562704 76.50561523 182.09765625 C74.76871842 182.80494136 73.03198585 183.51262995 71.29541016 184.22070312 C66.79910337 186.05252895 62.30034917 187.8782604 57.80084229 189.70220947 C54.36705261 191.09482942 50.9345806 192.49067898 47.50210571 193.88653564 C39.7189651 197.05158394 31.9310178 200.20442232 24.1390686 203.34771729 C19.95436813 205.03876347 15.7823695 206.75713548 11.61889648 208.5 C10.68972412 208.88478516 9.76055176 209.26957031 8.80322266 209.66601562 C7.18853212 210.33572149 5.5774891 211.01434835 3.97167969 211.70507812 C-5.58129981 215.63687984 -11.97867833 212.94708162 -21.05688477 209.22265625 C-22.2628833 208.73812988 -23.46888184 208.25360352 -24.71142578 207.75439453 C-28.77268215 206.11877194 -32.82163877 204.45388122 -36.86938477 202.78515625 C-37.60261963 202.48341492 -38.33585449 202.18167358 -39.09130859 201.87078857 C-48.29794827 198.0807665 -57.4882221 194.25311865 -66.66349792 190.38780212 C-70.99338412 188.56568182 -75.3339781 186.77324536 -79.68579102 185.00390625 C-81.58036868 184.22276881 -83.47490428 183.44152935 -85.36938477 182.66015625 C-86.19881592 182.33063965 -87.02824707 182.00112305 -87.8828125 181.66162109 C-92.39336417 179.77854225 -95.23497638 178.10917211 -97.86938477 173.78515625 C-98.34449131 169.90511949 -98.17147966 167.00808911 -95.86938477 163.78515625 C-93.31490669 161.72192396 -91.82020281 161.78716251 -88.51782227 161.921875 C-82.31352716 162.78913454 -76.85817539 165.47019425 -71.11938477 167.91015625 C-53.73019921 175.26711937 -36.29840396 182.52306492 -18.86938477 189.78515625 C-18.53938477 160.08515625 -18.20938477 130.38515625 -17.86938477 99.78515625 C-21.16938477 98.79515625 -24.46938477 97.80515625 -27.86938477 96.78515625 C-29.86771383 96.05727584 -31.8556646 95.29954224 -33.82641602 94.5 C-34.91712402 94.06059082 -36.00783203 93.62118164 -37.1315918 93.16845703 C-38.88898682 92.45278564 -38.88898682 92.45278564 -40.68188477 91.72265625 C-42.62334683 90.93695467 -44.56537567 90.1526653 -46.50744629 89.36846924 C-47.9240775 88.79635387 -49.34049391 88.22370638 -50.75671387 87.65057373 C-56.96689937 85.1402631 -63.1924612 82.6695957 -69.42016602 80.203125 C-72.44461838 79.00271782 -75.46885648 77.80177259 -78.49301147 76.60061646 C-80.47543229 75.81431203 -82.45851438 75.02967254 -84.44229126 74.24679565 C-114.63736605 62.32449161 -114.63736605 62.32449161 -117.86938477 55.78515625 C-118.33813477 53.3203125 -118.33813477 53.3203125 -118.36938477 50.84765625 C-118.41579102 49.62755859 -118.41579102 49.62755859 -118.46313477 48.3828125 C-117.6180455 44.68554698 -115.5901519 42.31471361 -112.86938477 39.78515625 C-110.24503684 38.16633458 -107.47296613 37.07044464 -104.60766602 35.9453125 C-103.72065506 35.58115738 -102.8336441 35.21700226 -101.91975403 34.84181213 C-99.21934742 33.7374351 -96.51266461 32.64978025 -93.80445099 31.56473541 C-90.12434232 30.08213187 -86.45579596 28.57117926 -82.78491211 27.06591797 C-74.9569482 23.86065578 -67.11681302 20.68646189 -59.2690258 17.53006554 C-54.67565801 15.68243636 -50.08468073 13.82934127 -45.49902344 11.96264648 C-40.99931652 10.13100117 -36.49434206 8.31295713 -31.98525429 6.50453377 C-30.28459045 5.81989019 -28.58580162 5.13056853 -26.88902855 4.43633842 C-24.52706995 3.47109448 -22.15871363 2.52354793 -19.78808594 1.57983398 C-19.10178101 1.29474976 -18.41547607 1.00966553 -17.70837402 0.71594238 C-11.93788297 -1.54577438 -5.92130396 -2.5066709 0 0 Z " fill="#032061" transform="translate(191.869384765625,69.21484375)"/>
<path d="M0 0 C0.99 0.66 1.98 1.32 3 2 C3.33 0.35 3.66 -1.3 4 -3 C13.57 -3 23.14 -3 33 -3 C33.06803576 9.90969774 33.12296545 22.81927452 33.15543652 35.72911167 C33.17102848 41.72499365 33.19214749 47.72074558 33.22631836 53.71655273 C33.25914385 59.51320088 33.27690154 65.30972468 33.28463173 71.10645866 C33.29013388 73.30741264 33.30087704 75.50836055 33.31719017 77.70926094 C33.46354154 98.29086759 32.57528939 117.03834677 17.47265625 132.74609375 C4.28077273 144.7709228 -12.37440364 147.91463866 -29.72753906 147.17480469 C-43.03395688 146.15123409 -57.5112273 140.95206815 -66.5703125 130.87890625 C-71.28239818 124.6862472 -73.23977602 119.6912022 -74 112 C-69.98044282 111.80120128 -65.9628108 111.65661559 -61.93945312 111.56054688 C-60.573386 111.52048247 -59.20765844 111.46600759 -57.84277344 111.39648438 C-46.43718271 110.83036746 -46.43718271 110.83036746 -42.85449219 113.74609375 C-41.2890625 115.90625 -41.2890625 115.90625 -40.13134766 118.07226562 C-38.47442179 120.89554715 -36.52597232 121.69928398 -33.4609375 122.59765625 C-24.1338351 124.12256347 -15.29333574 123.80223631 -7 119 C-1.33611461 114.69052199 1.64899006 107.91556571 3 101 C3.06548492 99.41788427 3.08578381 97.83329919 3.0625 96.25 C3.05347656 95.45078125 3.04445313 94.6515625 3.03515625 93.828125 C3.02355469 93.22484375 3.01195312 92.6215625 3 92 C2.29037109 92.58007812 2.29037109 92.58007812 1.56640625 93.171875 C-10.79120332 102.90379365 -22.68917386 104.0834702 -38 103 C-51.57674934 100.71657509 -61.92664046 92.96126088 -70 82 C-78.6645844 66.63621253 -80.53444599 48.13707376 -76.03125 31.125 C-71.61784562 17.75104733 -63.56871659 6.70471671 -51 0 C-35.89004134 -6.93096924 -14.61257402 -9.23783415 0 0 Z " fill="#022162" transform="translate(640,136)"/>
<path d="M0 0 C0.97469238 0.00418945 1.94938477 0.00837891 2.95361328 0.01269531 C9.74867979 0.11959678 15.8518309 0.69162969 22.1875 3.3125 C22.88359375 3.56773437 23.5796875 3.82296875 24.296875 4.0859375 C32.76583724 7.66390992 39.48632197 15.04976639 43.10539246 23.40878296 C47.10390421 34.13835119 47.60876229 45.02701187 47.48046875 56.3359375 C47.47485474 57.81808029 47.47059321 59.30022874 47.46760559 60.78237915 C47.45629849 64.63256947 47.42695839 68.48240556 47.39349365 72.3324585 C47.3570046 76.97909223 47.34356407 81.6258462 47.32613373 86.27258301 C47.2973082 93.28613299 47.23972475 100.29890994 47.1875 107.3125 C37.6175 107.3125 28.0475 107.3125 18.1875 107.3125 C17.6925 103.8475 17.6925 103.8475 17.1875 100.3125 C16.775 100.69921875 16.3625 101.0859375 15.9375 101.484375 C4.81078404 111.5182885 -5.86911573 112.00560036 -20.33007812 111.48730469 C-30.20141041 110.79219514 -37.02776749 105.81738358 -43.34375 98.55078125 C-49.00668374 91.22518383 -49.51374724 83.30225968 -48.8125 74.3125 C-47.62137959 66.22231583 -44.00186362 60.61168442 -37.8125 55.3125 C-24.72489552 46.80866825 -9.71057413 47.144279 5.375 47.25 C7.2322168 47.25676758 7.2322168 47.25676758 9.12695312 47.26367188 C12.14718785 47.27533301 15.16731677 47.29169764 18.1875 47.3125 C18.06581969 45.57099773 17.93353322 43.83023473 17.796875 42.08984375 C17.72436523 41.12038818 17.65185547 40.15093262 17.57714844 39.15209961 C16.82127353 33.64359016 14.63403556 29.72287217 10.6875 25.875 C5.33080569 22.52706606 -0.66702478 22.83085172 -6.8125 23.3125 C-12.03978303 25.02324717 -14.2552002 27.48204482 -16.8125 32.3125 C-17.1425 34.2925 -17.4725 36.2725 -17.8125 38.3125 C-26.7225 38.3125 -35.6325 38.3125 -44.8125 38.3125 C-44.8125 28.16617356 -42.33269172 20.0380942 -35.1328125 12.5703125 C-24.9800697 3.06995478 -13.61629273 -0.07947707 0 0 Z " fill="#012266" transform="translate(897.8125,130.6875)"/>
<path d="M0 0 C0 31.35 0 62.7 0 95 C-11.24984795 100.62492398 -11.24984795 100.62492398 -15.40771484 102.27661133 C-16.3434433 102.65082718 -17.27917175 103.02504303 -18.24325562 103.41059875 C-19.22259064 103.79717148 -20.20192566 104.1837442 -21.2109375 104.58203125 C-22.78326645 105.20884041 -22.78326645 105.20884041 -24.38735962 105.84831238 C-27.71495899 107.17380896 -31.04490144 108.49329659 -34.375 109.8125 C-36.56917172 110.68514139 -38.76318339 111.55818534 -40.95703125 112.43164062 C-45.24712443 114.13939394 -49.538667 115.84343344 -53.83105469 117.54541016 C-57.88937994 119.15651572 -61.94182395 120.78116264 -65.98925781 122.41943359 C-66.9180777 122.7945256 -67.84689758 123.16961761 -68.80386353 123.55607605 C-70.54280486 124.2591759 -72.28064169 124.96501575 -74.0171814 125.67402649 C-79.77749836 128 -79.77749836 128 -82 128 C-82 96.65 -82 65.3 -82 33 C-76.79710633 30.39855317 -71.7294607 27.97196039 -66.35546875 25.8203125 C-65.6396463 25.53063095 -64.92382385 25.2409494 -64.18630981 24.94248962 C-61.85470605 23.99998402 -59.52119689 23.06230961 -57.1875 22.125 C-55.55810852 21.46821185 -53.92879655 20.81122644 -52.29956055 20.15405273 C-48.91769396 18.79080961 -45.53488098 17.42995023 -42.15136719 16.07080078 C-37.88205027 14.35556766 -33.61525451 12.63416429 -29.34922791 10.9107666 C-26.11245231 9.60393084 -22.87437792 8.3003395 -19.63589478 6.9977417 C-18.08955578 6.37529014 -16.54363488 5.75179889 -14.99813843 5.1272583 C-12.85034583 4.25987996 -10.70082915 3.39692603 -8.55078125 2.53515625 C-6.72027222 1.79857788 -6.72027222 1.79857788 -4.8527832 1.04711914 C-2 0 -2 0 0 0 Z " fill="#FEFEFE" transform="translate(276,133)"/>
<path d="M0 0 C9.9 0 19.8 0 30 0 C30.05607422 7.115625 30.05607422 7.115625 30.11328125 14.375 C30.14358062 17.39196244 30.1747412 20.40886728 30.20898438 23.42578125 C30.26317725 28.20748894 30.31429194 32.98908271 30.34643555 37.77099609 C30.37257003 41.62913513 30.41304269 45.48688856 30.46318626 49.3447876 C30.47978678 50.81182027 30.49134331 52.27891953 30.49761391 53.74603271 C30.33533761 66.16921019 30.33533761 66.16921019 35.68359375 77.05859375 C36.26238281 77.51363281 36.84117187 77.96867187 37.4375 78.4375 C38.30181641 79.14712891 38.30181641 79.14712891 39.18359375 79.87109375 C44.13400546 82.94780124 50.39115722 82.63754099 56 82 C61.38370979 80.37909813 65.00730958 77.73974951 67.71362305 72.78173828 C70.96283034 65.88468814 70.73046637 58.82034226 70.70703125 51.3671875 C70.72017172 49.87930295 70.73548309 48.39143615 70.75285339 46.90359497 C70.79244275 43.02053274 70.80287678 39.13793989 70.80688477 35.25469971 C70.81792031 30.57790867 70.86579488 25.90136205 70.90737152 21.22476196 C70.96620904 14.14963292 70.97874558 7.07579057 71 0 C80.57 0 90.14 0 100 0 C100 34.65 100 69.3 100 105 C90.43 105 80.86 105 71 105 C71 102.69 71 100.38 71 98 C70.34 98 69.68 98 69 98 C68.79117188 98.59425781 68.58234375 99.18851562 68.3671875 99.80078125 C66.47855048 102.8387888 64.33182479 103.66249408 61.125 105.1875 C60.07570313 105.69667969 59.02640625 106.20585937 57.9453125 106.73046875 C47.67730414 111.15633442 33.18374841 110.68832387 22.75 107 C13.32316537 102.62194873 7.81744117 96.74133566 3.19140625 87.515625 C-0.38631648 76.9584104 -0.27195469 66.08494363 -0.1953125 55.078125 C-0.19157297 53.48101989 -0.18873045 51.88391245 -0.18673706 50.2868042 C-0.17917449 46.12432291 -0.15959128 41.9619857 -0.1373291 37.79956055 C-0.11670986 33.53566434 -0.10770129 29.2717444 -0.09765625 25.0078125 C-0.07633684 16.67180217 -0.04121678 8.33593572 0 0 Z " fill="#012166" transform="translate(448,133)"/>
<path d="M0 0 C10.23 0 20.46 0 31 0 C31 39.6 31 79.2 31 120 C50.8 120 70.6 120 91 120 C91 127.59 91 135.18 91 143 C60.97 143 30.94 143 0 143 C0 95.81 0 48.62 0 0 Z " fill="#052263" transform="translate(346,95)"/>
<path d="M0 0 C10.56 0 21.12 0 32 0 C40.73511714 22.97455468 49.38217754 45.98122752 58 69 C63.31752418 55.89081342 68.41923276 42.71620331 73.32958984 29.44921875 C74.39273495 26.5770883 75.45976402 23.70642221 76.52734375 20.8359375 C77.21376219 18.98706102 77.89996835 17.13810572 78.5859375 15.2890625 C78.90049896 14.44219879 79.21506042 13.59533508 79.53915405 12.72280884 C79.83351349 11.92692352 80.12787292 11.13103821 80.43115234 10.31103516 C80.68681976 9.62079254 80.94248718 8.93054993 81.2059021 8.21939087 C82.18077133 5.49476981 83.08490821 2.74527538 84 0 C94.23 0 104.46 0 115 0 C111.62539362 10.12381915 111.62539362 10.12381915 109.87792969 14.4675293 C109.48561661 15.44660751 109.09330353 16.42568573 108.68910217 17.43443298 C108.27091721 18.47056229 107.85273224 19.50669159 107.421875 20.57421875 C106.75586525 22.23397484 106.75586525 22.23397484 106.07640076 23.92726135 C105.12717939 26.29224115 104.17682616 28.65676692 103.22543335 31.02087402 C100.98965215 36.57705412 98.76093343 42.13606321 96.53229332 47.69511032 C95.78512734 49.55866585 95.03768323 51.42210967 94.29023743 53.28555298 C89.89000892 64.26085497 85.52681989 75.25049155 81.1875 86.25 C80.87171997 87.0494101 80.55593994 87.84882019 80.23059082 88.67245483 C79.35455153 90.89061939 78.47971327 93.10925254 77.60546875 95.328125 C77.12231201 96.5543457 76.63915527 97.78056641 76.14135742 99.04394531 C75.3814366 101.01209961 74.66716647 102.99850059 74 105 C63.77 105 53.54 105 43 105 C36.10365866 90.0579271 36.10365866 90.0579271 33.2578125 83.1328125 C32.93212784 82.34639877 32.60644318 81.55998505 32.27088928 80.7497406 C31.21962191 78.20924125 30.17220694 75.66717544 29.125 73.125 C28.38469402 71.33318066 27.64421233 69.5414339 26.90356445 67.74975586 C24.59777036 62.16839775 22.2980854 56.58453584 20 51 C19.62159973 50.0806366 19.24319946 49.16127319 18.85333252 48.21405029 C14.14061574 36.76223698 9.42880241 25.30997034 4.75286865 13.84307861 C4.06041491 12.1479002 3.36366377 10.45447888 2.66650391 8.76123047 C2.29831543 7.85904785 1.93012695 6.95686523 1.55078125 6.02734375 C1.24438721 5.280896 0.93799316 4.53444824 0.62231445 3.76538086 C0 2 0 2 0 0 Z " fill="#022162" transform="translate(681,133)"/>
<path d="M0 0 C0.87358154 0.37423096 1.74716309 0.74846191 2.6472168 1.1340332 C3.59765869 1.55257568 4.54810059 1.97111816 5.52734375 2.40234375 C7.65923202 3.31596177 9.79211565 4.22725926 11.92578125 5.13671875 C13.10881836 5.64267578 14.29185547 6.14863281 15.51074219 6.66992188 C22.37506491 9.58412419 29.2944779 12.36604166 36.20724487 15.16281128 C38.59928226 16.13086975 40.99026616 17.10149198 43.38110352 18.07250977 C52.04259717 21.58496446 60.7253398 25.02512492 69.46484375 28.33984375 C69.46484375 29.32984375 69.46484375 30.31984375 69.46484375 31.33984375 C68.74570801 31.6143335 68.02657227 31.88882324 67.28564453 32.17163086 C64.39373776 33.27783828 61.50329283 34.38778389 58.61358643 35.49972534 C57.26344737 36.01851313 55.91281885 36.53602883 54.56170654 37.05227661 C45.42449174 40.54572793 36.373012 44.19813345 27.37109375 48.02734375 C24.54265595 49.21770996 21.71331994 50.40591649 18.88372803 51.59353638 C17.02763616 52.37998815 15.17586277 53.17671419 13.32867432 53.9838562 C10.70982163 55.12724611 8.07807168 56.23437527 5.44140625 57.3359375 C4.66744507 57.68523315 3.89348389 58.03452881 3.09606934 58.39440918 C-2.10844601 60.5167788 -5.19126803 60.40448831 -10.39523315 58.29008484 C-11.10140778 57.97650528 -11.8075824 57.66292572 -12.53515625 57.33984375 C-13.74929199 56.87666748 -14.96342773 56.41349121 -16.21435547 55.9362793 C-18.00897217 55.21371948 -18.00897217 55.21371948 -19.83984375 54.4765625 C-20.50985916 54.20770737 -21.17987457 53.93885223 -21.87019348 53.66184998 C-24.05116046 52.78609556 -26.23064993 51.90672624 -28.41015625 51.02734375 C-29.93844714 50.41297299 -31.46685082 49.79888276 -32.99536133 49.18505859 C-36.19313962 47.90064637 -39.3904226 46.61501175 -42.58740234 45.32861328 C-50.01162985 42.3426846 -57.44274649 39.37397268 -64.87335205 36.40396118 C-68.61895579 34.90668307 -72.36415486 33.40839355 -76.109375 31.91015625 C-77.36547652 31.40770985 -78.62157981 30.90526788 -79.87768555 30.40283203 C-80.75465088 30.0520459 -81.63161621 29.70125977 -82.53515625 29.33984375 C-80.8919593 26.05344985 -77.30104326 25.40891069 -74.03125 24.1015625 C-73.2530188 23.78407547 -72.4747876 23.46658844 -71.67297363 23.13948059 C-69.10889153 22.09533346 -66.54096864 21.06103738 -63.97265625 20.02734375 C-62.20560962 19.31169385 -60.43876532 18.59554415 -58.67211914 17.87890625 C-55.9670682 16.78197596 -53.2617124 15.68584313 -50.55516052 14.59262085 C-44.70044721 12.22645026 -38.86306486 9.82197144 -33.03515625 7.390625 C-30.86839586 6.4916327 -28.7011839 5.59374099 -26.53372192 4.69644165 C-25.16776403 4.12873695 -23.80321581 3.55762758 -22.44015503 2.98300171 C-20.54731448 2.18595312 -18.6494839 1.40215053 -16.75 0.62109375 C-15.689021 0.17830078 -14.62804199 -0.26449219 -13.53491211 -0.72070312 C-8.58204377 -2.27182524 -4.72460216 -2.0693005 0 0 Z " fill="#FDFDFD" transform="translate(190.53515625,88.66015625)"/>
<path d="M0 0 C9.9 0 19.8 0 30 0 C30 34.65 30 69.3 30 105 C20.1 105 10.2 105 0 105 C0 70.35 0 35.7 0 0 Z " fill="#011F5F" transform="translate(805,133)"/>
<path d="M0 0 C6.72599305 4.22329796 9.80144461 10.52227293 11.8125 18 C14.06432886 28.20999676 13.4203082 38.78608426 8.3203125 48.1171875 C4.10553286 54.1276129 -1.77787861 58.51309265 -9 60 C-16.27318136 60.95699755 -22.69189039 59.80341903 -29 56 C-36.8819251 49.57215418 -40.30421726 41.47947675 -41.375 31.5078125 C-41.73704687 21.16684887 -39.49078381 11.82517689 -32.80859375 3.7265625 C-23.7738671 -4.89838173 -10.86748691 -5.43374346 0 0 Z " fill="#FCFCFD" transform="translate(633,156)"/>
<path d="M0 0 C0.6770549 -0.0087616 1.3541098 -0.01752319 2.05168152 -0.02655029 C4.27852406 -0.04846834 6.50336371 -0.03402341 8.73022461 -0.01708984 C10.28291707 -0.02045985 11.83560695 -0.02531401 13.38829041 -0.03158569 C16.63737177 -0.03894627 19.88576449 -0.0282774 23.13476562 -0.00488281 C27.297068 0.0236296 31.45776015 0.0071822 35.6200037 -0.02274513 C38.82429624 -0.04082062 42.02820744 -0.03505964 45.23251152 -0.02210617 C46.76709624 -0.01877402 48.30171574 -0.02285263 49.83625984 -0.03450394 C51.98161555 -0.04722112 54.12436924 -0.02783203 56.26953125 0 C58.09889977 0.00596695 58.09889977 0.00596695 59.96522522 0.01205444 C63.07006836 0.64697266 63.07006836 0.64697266 65.45994568 2.96865845 C67.59781597 6.52483988 67.72641332 8.56304848 67.07006836 12.64697266 C64.50162955 15.90911297 63.0029934 17.46112194 58.88293457 18.28189087 C57.68334106 18.28586884 56.48374756 18.2898468 55.24780273 18.29394531 C54.5821077 18.30270691 53.91641266 18.31146851 53.23054504 18.32049561 C51.04096326 18.34241334 48.85341884 18.32796743 46.66381836 18.31103516 C45.13594171 18.31440557 43.60806769 18.31926007 42.0802002 18.32553101 C38.88238935 18.33289188 35.68527815 18.32222335 32.48754883 18.29882812 C28.39483706 18.27033939 24.30376464 18.28674778 20.21111298 18.31669044 C17.05739051 18.33478552 13.90405475 18.32899558 10.75032043 18.31605148 C9.24168197 18.31272351 7.73300804 18.31678321 6.22441101 18.32844925 C4.11277724 18.34119623 2.00377256 18.32173517 -0.10766602 18.29394531 C-1.30725952 18.28996735 -2.50685303 18.28598938 -3.74279785 18.28189087 C-7.86286022 17.46112124 -9.35870034 15.90662154 -11.92993164 12.64697266 C-12.55493164 9.14697266 -12.55493164 9.14697266 -11.92993164 5.64697266 C-8.25758928 0.97652695 -5.8726161 0.01914254 0 0 Z " fill="#012269" transform="translate(71.929931640625,196.35302734375)"/>
<path d="M0 0 C0.65754776 -0.0071553 1.31509552 -0.01431061 1.99256897 -0.02168274 C4.15453703 -0.03851893 6.31441645 -0.01920355 8.47631836 0.00219727 C9.9841682 0.00136818 11.49201795 -0.00109272 12.99986267 -0.00511169 C16.15480868 -0.00796603 19.3090433 0.00669625 22.46386719 0.03417969 C26.50494758 0.06829237 30.54475881 0.06223177 34.58590031 0.04351711 C37.69753068 0.03294286 40.80886631 0.04188806 43.92046928 0.05690193 C45.41038576 0.06207919 46.90033307 0.06160745 48.39024544 0.05535698 C50.47307551 0.04989794 52.55409513 0.0702956 54.63671875 0.09765625 C56.41279259 0.10695412 56.41279259 0.10695412 58.2247467 0.11643982 C61.88193389 0.73785746 63.04886397 1.6950831 65.25366211 4.63110352 C66.11412193 8.07294278 66.58462476 10.51786552 65.56616211 13.94360352 C63.92499639 16.05367373 62.74904582 16.65199285 60.25366211 17.63110352 C57.29394531 17.8850708 57.29394531 17.8850708 53.80444336 17.88989258 C52.49628662 17.8961969 51.18812988 17.90250122 49.84033203 17.90899658 C48.41560735 17.90541669 46.9908839 17.9013147 45.56616211 17.89672852 C44.10172461 17.89807626 42.63728754 17.9000177 41.17285156 17.90252686 C38.10632052 17.90547298 35.03990614 17.90119697 31.97338867 17.8918457 C28.04580906 17.88045139 24.11850281 17.8870136 20.19093323 17.89899063 C17.16774441 17.90622307 14.14462023 17.90391496 11.12142944 17.89873505 C9.67337003 17.89740238 8.22530472 17.89903286 6.7772522 17.90369415 C4.75246292 17.90878182 2.72765302 17.89965044 0.70288086 17.88989258 C-1.02442261 17.8875058 -1.02442261 17.8875058 -2.78662109 17.8850708 C-5.71496172 17.63379584 -7.33506718 17.27135221 -9.74633789 15.63110352 C-12.24665444 11.8806287 -12.28237343 10.07254086 -11.74633789 5.63110352 C-8.13573098 1.02354325 -5.78929352 0.00469928 0 0 Z " fill="#021F60" transform="translate(51.746337890625,160.368896484375)"/>
<path d="M0 0 C0.97646484 0.00322266 1.95292969 0.00644531 2.95898438 0.00976562 C3.96638672 0.01814453 4.97378906 0.02652344 6.01171875 0.03515625 C7.03845703 0.03966797 8.06519531 0.04417969 9.12304688 0.04882812 C11.64849757 0.06057441 14.1738278 0.0770006 16.69921875 0.09765625 C17.27871607 14.37046054 17.27871607 14.37046054 13.69921875 20.09765625 C9.54008908 24.55557397 5.19981958 26.86159514 -0.859375 27.43359375 C-2.77943359 27.45292969 -2.77943359 27.45292969 -4.73828125 27.47265625 C-6.01574219 27.50101563 -7.29320312 27.529375 -8.609375 27.55859375 C-13.74439699 26.91739524 -16.83982681 24.80210309 -20.17578125 20.91015625 C-21.77812432 16.90429858 -21.98149511 13.35211788 -21.30078125 9.09765625 C-18.70183796 4.3156006 -15.33452206 2.86388109 -10.30078125 1.09765625 C-6.8048524 0.26141722 -3.59046545 -0.02099687 0 0 Z " fill="#FCFCFD" transform="translate(899.30078125,193.90234375)"/>
<path d="M0 0 C3.79488576 1.98240301 6.17370355 4.30091837 7.70703125 8.26953125 C8.24069298 13.07248679 8.24858325 15.22654222 6.01953125 19.51953125 C2.00933733 24.28841051 -1.22926202 26.88532625 -7.44140625 27.47265625 C-13.73343624 27.60512004 -17.7307504 26.48550388 -22.60546875 22.26953125 C-25.42839606 18.92383962 -25.64122398 15.62220917 -25.5703125 11.328125 C-24.94991958 6.72323668 -22.05134754 4.00846443 -18.85546875 0.89453125 C-12.96280986 -1.79334825 -6.20813846 -1.97772043 0 0 Z " fill="#04205D" transform="translate(828.29296875,93.73046875)"/>
<path d="M0 0 C9.9 0 19.8 0 30 0 C30.05607422 7.115625 30.05607422 7.115625 30.11328125 14.375 C30.14358062 17.39196244 30.1747412 20.40886728 30.20898438 23.42578125 C30.26317725 28.20748894 30.31429194 32.98908271 30.34643555 37.77099609 C30.37257003 41.62913513 30.41304269 45.48688856 30.46318626 49.3447876 C30.47978678 50.81182027 30.49134331 52.27891953 30.49761391 53.74603271 C30.2826043 66.20617613 30.2826043 66.20617613 35.75390625 77.0234375 C36.35074219 77.46945313 36.94757813 77.91546875 37.5625 78.375 C38.16191406 78.83648437 38.76132812 79.29796875 39.37890625 79.7734375 C39.91386719 80.17820312 40.44882812 80.58296875 41 81 C41.99 81.99 41.99 81.99 43 83 C38.13634454 82.58311525 36.17061868 80.58780535 33 77 C32.443125 76.4225 31.88625 75.845 31.3125 75.25 C26.82459362 67.55644621 27.73680424 57.92106279 27.8046875 49.33984375 C27.80842526 47.9402334 27.81126862 46.54062039 27.81326294 45.14100647 C27.82083939 41.48646613 27.84043514 37.83208892 27.8626709 34.1776123 C27.88325959 30.43679001 27.89229229 26.69594094 27.90234375 22.95507812 C27.92368778 15.63663635 27.95881976 8.31836197 28 1 C19.42 1 10.84 1 2 1 C2.33 27.4 2.66 53.8 3 81 C-0.40582812 77.59417188 0.03583317 73.0653241 -0.12025452 68.42481995 C-0.11803391 67.16129196 -0.11581329 65.89776398 -0.11352539 64.59594727 C-0.11367142 63.892668 -0.11381744 63.18938873 -0.1139679 62.46479797 C-0.11327726 60.16530149 -0.1055251 57.86588839 -0.09765625 55.56640625 C-0.09578905 53.96215357 -0.09436657 52.35790031 -0.09336853 50.75364685 C-0.08956715 46.55004273 -0.0797574 42.34647366 -0.06866455 38.1428833 C-0.05839906 33.8459114 -0.05385994 29.54893378 -0.04882812 25.25195312 C-0.03813281 16.83461761 -0.0205555 8.41731722 0 0 Z " fill="#050D2F" transform="translate(448,133)"/>
<path d="M0 0 C0.65421936 -0.00073013 1.30843872 -0.00146027 1.98248291 -0.00221252 C4.13135542 0.00125358 6.27802299 0.04006031 8.42651367 0.0793457 C9.921512 0.08867751 11.41652568 0.09579189 12.9115448 0.1007843 C16.83611671 0.11982577 20.7597554 0.16890014 24.68395996 0.2243042 C28.69241716 0.27555935 32.70102597 0.2983116 36.7097168 0.32348633 C44.56756574 0.37702327 52.42465782 0.46229961 60.28198242 0.56762695 C60.28198242 1.22762695 60.28198242 1.88762695 60.28198242 2.56762695 C59.43451447 2.57349319 58.58704651 2.57935944 57.71389771 2.58540344 C49.73818266 2.64324012 41.76275036 2.71526425 33.78730965 2.80334187 C29.6867582 2.84812313 25.5863079 2.8873617 21.4855957 2.9140625 C17.530226 2.94001873 13.5752439 2.98036541 9.62011337 3.03081322 C8.10904628 3.04753422 6.59791207 3.05901582 5.08676529 3.06524086 C2.97450098 3.07482577 0.86324003 3.10281407 -1.2487793 3.13525391 C-3.05413651 3.15190849 -3.05413651 3.15190849 -4.89596558 3.16889954 C-5.82724274 3.30047958 -6.7585199 3.43205963 -7.71801758 3.56762695 C-10.0952899 6.47201685 -10.0952899 6.47201685 -9.46801758 10.19262695 C-9.22051758 11.30637695 -8.97301758 12.42012695 -8.71801758 13.56762695 C-5.8516066 15.00083244 -3.392477 14.70284205 -0.1887207 14.71289062 C0.48135513 14.71624924 1.15143097 14.71960785 1.84181213 14.72306824 C4.06147097 14.73258385 6.28105445 14.73452152 8.50073242 14.7355957 C10.04008007 14.73880739 11.57942741 14.7421714 13.11877441 14.74568176 C16.34684965 14.75167423 19.57489811 14.7535215 22.80297852 14.75292969 C26.94602133 14.75282795 31.0888932 14.76649146 35.23189545 14.7837019 C38.41112055 14.79480092 41.59030401 14.79684956 44.76954651 14.79631996 C46.29741506 14.79750282 47.8252846 14.80194161 49.35313416 14.80965233 C51.48644116 14.81941202 53.61937295 14.81659062 55.75268555 14.81054688 C57.57564148 14.8126844 57.57564148 14.8126844 59.4354248 14.81486511 C62.41488583 14.86356963 62.41488583 14.86356963 64.28198242 12.56762695 C64.90785667 7.19643996 64.90785667 7.19643996 62.78198242 2.56762695 C62.28698242 2.23762695 61.79198242 1.90762695 61.28198242 1.56762695 C63.15698242 1.88012695 63.15698242 1.88012695 65.28198242 2.56762695 C67.78229897 6.31810177 67.81801796 8.12618961 67.28198242 12.56762695 C64.72144614 15.84134497 63.21779115 17.38120177 59.09484863 18.20254517 C57.89525513 18.20652313 56.69566162 18.2105011 55.4597168 18.21459961 C54.79402176 18.22336121 54.12832672 18.2321228 53.44245911 18.2411499 C51.25287732 18.26306764 49.06533291 18.24862172 46.87573242 18.23168945 C45.34785578 18.23505987 43.81998175 18.23991437 42.29211426 18.2461853 C39.09430342 18.25354617 35.89719221 18.24287765 32.69946289 18.21948242 C28.60675112 18.19099369 24.5156787 18.20740208 20.42302704 18.23734474 C17.26930457 18.25543982 14.11596881 18.24964988 10.9622345 18.23670578 C9.45359603 18.2333778 7.9449221 18.2374375 6.43632507 18.24910355 C4.3246913 18.26185053 2.21568662 18.24238947 0.10424805 18.21459961 C-1.09534546 18.21062164 -2.29493896 18.20664368 -3.53088379 18.20254517 C-7.65094615 17.38177553 -9.14678628 15.82727583 -11.71801758 12.56762695 C-12.34301758 9.06762695 -12.34301758 9.06762695 -11.71801758 5.56762695 C-8.08813773 0.97154247 -5.80023418 -0.05461614 0 0 Z " fill="#060C2C" transform="translate(71.718017578125,196.432373046875)"/>
<path d="M0 0 C1.37671875 0.01353516 1.37671875 0.01353516 2.78125 0.02734375 C5.02111556 0.05067568 7.26041183 0.08340765 9.5 0.125 C9.5 0.455 9.5 0.785 9.5 1.125 C8.5553186 1.20802368 8.5553186 1.20802368 7.59155273 1.29272461 C4.70669312 1.54737236 1.82209868 1.80491392 -1.0625 2.0625 C-2.05314453 2.14951172 -3.04378906 2.23652344 -4.06445312 2.32617188 C-9.23763531 2.79021147 -14.36752079 3.32597448 -19.5 4.125 C-19.5 4.785 -19.5 5.445 -19.5 6.125 C-20.06847656 6.34414062 -20.63695312 6.56328125 -21.22265625 6.7890625 C-30.85499914 10.74491617 -36.16846048 15.59561306 -40.5 25.125 C-41.16 28.755 -41.82 32.385 -42.5 36.125 C-34.91 35.795 -27.32 35.465 -19.5 35.125 C-18.51 32.485 -17.52 29.845 -16.5 27.125 C-11.669878 22.18754196 -7.06516298 20.14264269 -0.25 19.6875 C5.36176023 19.82993046 9.92454987 21.96497689 14.5 25.125 C19.04091714 29.90491278 19.63809413 34.8731584 19.625 41.25 C19.62886719 43.14105469 19.62886719 43.14105469 19.6328125 45.0703125 C19.5 48.125 19.5 48.125 18.5 49.125 C15.90640678 49.21351529 13.33960309 49.24025945 10.74609375 49.22265625 C9.97064713 49.2212413 9.1952005 49.21982635 8.39625549 49.21836853 C5.90996506 49.21275345 3.4237634 49.20019846 0.9375 49.1875 C-0.74413933 49.18248694 -2.42578006 49.1779237 -4.10742188 49.17382812 C-8.23831566 49.16277913 -12.36914276 49.14550445 -16.5 49.125 C-16.5 48.795 -16.5 48.465 -16.5 48.125 C-9.15939989 46.95967973 -1.92007939 47.0115702 5.5 47.0625 C7.37751953 47.06926758 7.37751953 47.06926758 9.29296875 47.07617188 C12.36202941 47.08788585 15.43098907 47.10428927 18.5 47.125 C18.37831969 45.38349773 18.24603322 43.64273473 18.109375 41.90234375 C18.03686523 40.93288818 17.96435547 39.96343262 17.88964844 38.96459961 C17.13377353 33.45609016 14.94653556 29.53537217 11 25.6875 C5.64330569 22.33956606 -0.35452478 22.64335172 -6.5 23.125 C-11.72728303 24.83574717 -13.9427002 27.29454482 -16.5 32.125 C-16.83 34.105 -17.16 36.085 -17.5 38.125 C-26.41 38.125 -35.32 38.125 -44.5 38.125 C-44.5 27.97867356 -42.02019172 19.8505942 -34.8203125 12.3828125 C-24.7271798 2.93823451 -13.54192023 -0.25587931 0 0 Z " fill="#0B1434" transform="translate(897.5,130.875)"/>
<path d="M0 0 C9.57 0 19.14 0 29 0 C29 34.65 29 69.3 29 105 C19.43 105 9.86 105 0 105 C0 102.69 0 100.38 0 98 C0.33 98 0.66 98 1 98 C1 99.98 1 101.96 1 104 C9.91 104 18.82 104 28 104 C28 70.01 28 36.02 28 1 C19.09 1 10.18 1 1 1 C1.02618408 3.00755371 1.05236816 5.01510742 1.0793457 7.08349609 C1.16254384 13.74892002 1.217562 20.41436811 1.25906086 27.0801754 C1.2850507 31.11802221 1.32025105 35.1553328 1.37719727 39.19287109 C1.43190084 43.09625064 1.46150017 46.99911754 1.47438622 50.9028511 C1.48355799 52.38510829 1.50146717 53.86734039 1.52865028 55.34937668 C1.69755867 64.94832894 1.14202044 73.19473504 -5.49565125 80.68856812 C-9.72247458 84.37334591 -15.05508521 84.22537575 -20.375 84.125 C-21.62023437 84.10695313 -22.86546875 84.08890625 -24.1484375 84.0703125 C-25.08945312 84.04710937 -26.03046875 84.02390625 -27 84 C-27 83.67 -27 83.34 -27 83 C-26.23816406 82.98582031 -25.47632813 82.97164063 -24.69140625 82.95703125 C-17.39823044 82.62014298 -11.69307424 81.77721882 -6 77 C-0.13965157 69.2549026 -0.26381778 60.63817418 -0.29296875 51.3671875 C-0.27982828 49.87930295 -0.26451691 48.39143615 -0.24714661 46.90359497 C-0.20755725 43.02053274 -0.19712322 39.13793989 -0.19311523 35.25469971 C-0.18207969 30.57790867 -0.13420512 25.90136205 -0.09262848 21.22476196 C-0.03379096 14.14963292 -0.02125442 7.07579057 0 0 Z " fill="#04061A" transform="translate(519,133)"/>
<path d="M0 0 C3.18184548 4.77276823 3.12414828 9.07726308 3.11352539 14.71801758 C3.11367142 15.37223694 3.11381744 16.0264563 3.1139679 16.70050049 C3.11327494 18.84854526 3.10551164 20.99650175 3.09765625 23.14453125 C3.09578988 24.63954114 3.09436701 26.13455165 3.09336853 27.62956238 C3.08956064 31.55371811 3.07974518 35.4778365 3.06866455 39.40197754 C3.05841321 43.41055801 3.05386294 47.41914455 3.04882812 51.42773438 C3.03812129 59.28517525 3.02053856 67.14257867 3 75 C-6.24 75 -15.48 75 -25 75 C-25 74.34 -25 73.68 -25 73 C-12.13 73.495 -12.13 73.495 1 74 C0.67 49.58 0.34 25.16 0 0 Z " fill="#262F48" transform="translate(942,163)"/>
<path d="M0 0 C1.9156801 2.87352015 3.00749051 5.41932553 4.25 8.625 C9.50556834 21.32723368 16.58212216 29.3964352 29.19140625 35.0546875 C40.63787882 38.907325 56.79433869 38.8761 67.90625 34.16796875 C70.09884947 32.94485822 72.03460874 31.55891261 74 30 C74.66 30.33 75.32 30.66 76 31 C65.6395929 40.35778705 53.70086151 40.66420052 40.47021484 40.17480469 C28.03608015 39.29490348 18.61953061 33.00153095 10.1875 24.25 C4.0281064 17.07675932 0.53481761 9.44844444 0 0 Z " fill="#0C1534" transform="translate(564,199)"/>
<path d="M0 0 C0.65754776 -0.0071553 1.31509552 -0.01431061 1.99256897 -0.02168274 C4.15453703 -0.03851893 6.31441645 -0.01920355 8.47631836 0.00219727 C9.9841682 0.00136818 11.49201795 -0.00109272 12.99986267 -0.00511169 C16.15480868 -0.00796603 19.3090433 0.00669625 22.46386719 0.03417969 C26.50494758 0.06829237 30.54475881 0.06223177 34.58590031 0.04351711 C37.69753068 0.03294286 40.80886631 0.04188806 43.92046928 0.05690193 C45.41038576 0.06207919 46.90033307 0.06160745 48.39024544 0.05535698 C50.47307551 0.04989794 52.55409513 0.0702956 54.63671875 0.09765625 C56.41279259 0.10695412 56.41279259 0.10695412 58.2247467 0.11643982 C61.82014579 0.72735862 62.99985305 1.83712947 65.25366211 4.63110352 C64.92366211 5.29110352 64.59366211 5.95110352 64.25366211 6.63110352 C63.72700455 5.98112396 63.20034698 5.33114441 62.6577301 4.66146851 C59.5315875 2.02127259 57.84425856 2.13525213 53.78857422 2.14526367 C52.47718979 2.13911041 51.16580536 2.13295715 49.81468201 2.12661743 C48.38678281 2.14041279 46.95889059 2.15494672 45.53100586 2.17016602 C44.06417503 2.17255123 42.5973411 2.1734556 41.13050842 2.17294312 C38.05962947 2.17606834 34.98921832 2.19261296 31.91845703 2.21948242 C27.98177753 2.25349217 24.04561106 2.26111 20.10880184 2.25959206 C17.08133546 2.26013577 14.05398127 2.27110266 11.0265522 2.28559494 C9.57488415 2.29195945 8.12320339 2.29590103 6.67152214 2.29738235 C4.64408676 2.30171714 2.61669906 2.32080269 0.58935547 2.34057617 C-0.56440079 2.34819977 -1.71815704 2.35582336 -2.90687561 2.36367798 C-5.94911045 2.42378029 -5.94911045 2.42378029 -8.74633789 4.63110352 C-9.32627488 6.82565033 -9.32627488 6.82565033 -9.43383789 9.25610352 C-9.53245117 10.48200195 -9.53245117 10.48200195 -9.63305664 11.73266602 C-9.68913086 12.67239258 -9.68913086 12.67239258 -9.74633789 13.63110352 C-10.40633789 13.30110352 -11.06633789 12.97110352 -11.74633789 12.63110352 C-12.16104747 8.4010658 -12.30872911 6.35459517 -9.64845276 2.93226624 C-6.12496818 0.13840323 -4.44976003 0.00361196 0 0 Z " fill="#040718" transform="translate(51.746337890625,160.368896484375)"/>
<path d="M0 0 C0.66 0.33 1.32 0.66 2 1 C1.195625 1.61875 0.39125 2.2375 -0.4375 2.875 C-3.00888041 5.00736424 -3.87074225 5.73476544 -4.203125 8.98828125 C-4.30046929 13.81493582 -4.27193341 17.16394014 -1 21 C4.99911813 25.4667347 11.89959412 24.67155805 19 24 C25.03859296 22.38300915 28.3971788 18.95387915 32 14 C32.495 14.99 32.495 14.99 33 16 C28.7543987 22.1440409 24.26630627 25.1968398 17 27 C10.43699416 27.88444795 3.88574027 27.17109272 -2 24 C-5.67480326 20.14145657 -6.73470709 16.36807113 -7.1015625 11.1796875 C-6.94613532 7.84398118 -5.87901295 5.7213291 -4 3 C-1.8125 1.125 -1.8125 1.125 0 0 Z " fill="#08102F" transform="translate(883,196)"/>
<path d="M0 0 C0.33 0 0.66 0 1 0 C1.127601 6.36778167 1.21468406 12.7352293 1.2746582 19.10400391 C1.29968039 21.26688965 1.33370909 23.42969189 1.37719727 25.59228516 C1.43839207 28.71537981 1.46633343 31.83734913 1.48828125 34.9609375 C1.51408768 35.91551849 1.5398941 36.87009949 1.56648254 37.85360718 C1.56959359 45.43401195 -0.42148188 51.91492765 -5.49565125 57.70736694 C-9.74700665 61.36040452 -15.05031631 61.22546573 -20.375 61.125 C-21.62023437 61.10695312 -22.86546875 61.08890625 -24.1484375 61.0703125 C-25.08945312 61.04710937 -26.03046875 61.02390625 -27 61 C-27 60.67 -27 60.34 -27 60 C-25.85724609 59.97873047 -25.85724609 59.97873047 -24.69140625 59.95703125 C-17.42395671 59.62133133 -11.65625794 58.80039144 -6 54 C-1.45181277 47.44016648 -0.25914642 41.23196536 -0.29296875 33.3984375 C-0.27784744 32.435961 -0.26272614 31.4734845 -0.24714661 30.48184204 C-0.20459477 27.44598363 -0.19546313 24.41112568 -0.1875 21.375 C-0.16433042 19.30075525 -0.13896001 17.22653385 -0.11132812 15.15234375 C-0.0487971 10.10147532 -0.01620815 5.05122083 0 0 Z " fill="#070B21" transform="translate(519,156)"/>
<path d="M0 0 C-3.02745111 1.60944122 -6.06196373 2.73205301 -9.3125 3.8125 C-17.79983614 6.89777665 -23.02236404 10.73243434 -27 19 C-27.90521718 21.98741651 -28.11762515 24.65047599 -28.09765625 27.765625 C-28.09443359 28.65507812 -28.09121094 29.54453125 -28.08789062 30.4609375 C-28.07951172 31.38132813 -28.07113281 32.30171875 -28.0625 33.25 C-28.05798828 34.18585938 -28.05347656 35.12171875 -28.04882812 36.0859375 C-28.03706918 38.39069041 -28.02063426 40.69531227 -28 43 C-31.36169973 39.63830027 -31.17707309 35.98154969 -31.25 31.375 C-31.10964561 21.74902824 -29.0661583 15.02149619 -22.32421875 7.98046875 C-15.73949942 2.36962388 -8.55534353 -0.19443963 0 0 Z " fill="#0E1737" transform="translate(880,180)"/>
<path d="M0 0 C9.9 0 19.8 0 30 0 C26.49541284 10.51376147 26.49541284 10.51376147 24.9375 14.5 C24.61652344 15.3353125 24.29554688 16.170625 23.96484375 17.03125 C23 19 23 19 21 20 C21.33 17.36 21.66 14.72 22 12 C22.66 12 23.32 12 24 12 C24.66 8.7 25.32 5.4 26 2 C17.42 2 8.84 2 0 2 C0 1.34 0 0.68 0 0 Z " fill="#0A102B" transform="translate(766,133)"/>
<path d="M0 0 C-6.94342122 3.13856666 -13.94371721 6.12426431 -21 9 C-22.18335938 9.48339844 -23.36671875 9.96679688 -24.5859375 10.46484375 C-25.75382813 10.93019531 -26.92171875 11.39554688 -28.125 11.875 C-29.20007813 12.30554688 -30.27515625 12.73609375 -31.3828125 13.1796875 C-34 14 -34 14 -36 13 C-28.84517819 9.26696357 -21.57378136 6.06946104 -14.0625 3.125 C-13.03576172 2.70992187 -12.00902344 2.29484375 -10.95117188 1.8671875 C-9.47680664 1.28710938 -9.47680664 1.28710938 -7.97265625 0.6953125 C-7.08843994 0.34484863 -6.20422363 -0.00561523 -5.29321289 -0.36669922 C-3 -1 -3 -1 0 0 Z " fill="#0E193B" transform="translate(244,243)"/>
<path d="M0 0 C11.65318584 3.19342112 23.35729796 7.23520306 34 13 C30.06608737 14.31130421 27.83371128 13.04088706 24.1796875 11.54296875 C23.52042267 11.27994461 22.86115784 11.01692047 22.18191528 10.7459259 C20.78984789 10.18796722 19.39965267 9.62531813 18.01123047 9.05834961 C15.88076348 8.18984952 13.74384617 7.3390428 11.60546875 6.49023438 C10.25478901 5.94635269 8.90451396 5.40146469 7.5546875 4.85546875 C6.91304657 4.60016891 6.27140564 4.34486908 5.61032104 4.08183289 C1.11537763 2.23075526 1.11537763 2.23075526 0 0 Z " fill="#101938" transform="translate(98,138)"/>
<path d="M0 0 C7.61554118 -0.73226358 13.16076141 1.80835533 20 5 C20 5.66 20 6.32 20 7 C18.57107422 6.69255859 18.57107422 6.69255859 17.11328125 6.37890625 C15.85902344 6.10949219 14.60476562 5.84007813 13.3125 5.5625 C12.07113281 5.29566406 10.82976562 5.02882813 9.55078125 4.75390625 C6.70387985 4.14944864 3.85544374 3.56235316 1 3 C0.67 2.01 0.34 1.02 0 0 Z " fill="#0B1A47" transform="translate(180,68)"/>
<path d="M0 0 C0.66 0.33 1.32 0.66 2 1 C1.195625 1.61875 0.39125 2.2375 -0.4375 2.875 C-3.00888041 5.00736424 -3.87074225 5.73476544 -4.203125 8.98828125 C-4.32422986 14.99306372 -3.5000775 18.31473157 0.6875 22.8125 C1.120625 23.204375 1.55375 23.59625 2 24 C1.34 24.33 0.68 24.66 0 25 C-3.81785814 21.58402167 -6.00431213 19.07800814 -7 14 C-7.06890836 9.6243194 -6.49426932 6.74937606 -4.0625 3.0625 C-2 1 -2 1 0 0 Z " fill="#060F30" transform="translate(883,196)"/>
<path d="M0 0 C1.875 0.3125 1.875 0.3125 4 1 C6.50031654 4.75047482 6.53603554 6.55856266 6 11 C3.625 13.9375 3.625 13.9375 1 16 C0.34 16 -0.32 16 -1 16 C-1 15.34 -1 14.68 -1 14 C-0.34 13.62875 0.32 13.2575 1 12.875 C3.14240423 11.23114173 3.14240423 11.23114173 3.37109375 9.1328125 C3.50806336 4.75938979 3.50806336 4.75938979 1.5 1 C1.005 0.67 0.51 0.34 0 0 Z " fill="#0B132F" transform="translate(133,198)"/>
<path d="M0 0 C1.38160733 4.14482198 -0.21288083 6.78302529 -1.8125 10.625 C-2.08642578 11.31851563 -2.36035156 12.01203125 -2.64257812 12.7265625 C-4.7363868 17.8681934 -4.7363868 17.8681934 -7 19 C-5.68 13.72 -4.36 8.44 -3 3 C-2.34 3 -1.68 3 -1 3 C-0.67 2.01 -0.34 1.02 0 0 Z " fill="#0B1433" transform="translate(780,169)"/>
<path d="M0 0 C0.99 0.33 1.98 0.66 3 1 C2 3 2 3 -0.6015625 4.1171875 C-4.33753608 5.08768179 -7.52169264 5.19770391 -11.375 5.125 C-12.62023437 5.10695312 -13.86546875 5.08890625 -15.1484375 5.0703125 C-16.55996094 5.03550781 -16.55996094 5.03550781 -18 5 C-18 4.67 -18 4.34 -18 4 C-17.20335937 3.96261719 -16.40671875 3.92523438 -15.5859375 3.88671875 C-9.61505346 3.51626244 -5.2886973 2.98336771 0 0 Z " fill="#0A1742" transform="translate(510,212)"/>
<path d="M0 0 C0.2475 0.53625 0.495 1.0725 0.75 1.625 C3.473505 6.7996595 6.27922838 10.5215367 11 14 C11.66 14.66 12.32 15.32 13 16 C7.24033246 15.50631421 4.87504054 12.14290348 1.25 8 C-0.2141599 5.65734416 -0.70421374 3.73602287 -1 1 C-0.67 0.67 -0.34 0.34 0 0 Z " fill="#0E1535" transform="translate(478,200)"/>
<path d="M0 0 C5.95313434 0.29765672 9.70222089 3.13302453 14 7 C14.33 7.66 14.66 8.32 15 9 C10.97030801 7.61839132 8.30399253 5.64319402 5 3 C2.3205355 1.75983331 2.3205355 1.75983331 0 1 C0 0.67 0 0.34 0 0 Z " fill="#0C1433" transform="translate(917,134)"/>
<path d="M0 0 C1.98 0 3.96 0 6 0 C5.34 2.31 4.68 4.62 4 7 C1.49962266 4.82575883 0.56371414 3.26954202 0 0 Z " fill="#0C1C46" transform="translate(681,134)"/>
<path d="M0 0 C2.64 0 5.28 0 8 0 C7.67 0.99 7.34 1.98 7 3 C5.125 3.875 5.125 3.875 3 4 C1.25 2.625 1.25 2.625 0 1 C0 0.67 0 0.34 0 0 Z " fill="#132757" transform="translate(180,68)"/>
<path d="M0 0 C-0.33 0.66 -0.66 1.32 -1 2 C-3.32156597 2.40729228 -5.6568787 2.74438677 -8 3 C-8 2.01 -8 1.02 -8 0 C-4.94736336 -0.98120464 -3.05263664 -0.98120464 0 0 Z " fill="#071B4D" transform="translate(631,259)"/>
<path d="M0 0 C1.0326802 2.78823655 1.04509293 3.8677274 0.0625 6.75 C-0.288125 7.4925 -0.63875 8.235 -1 9 C-1.33 9 -1.66 9 -2 9 C-2.125 5.625 -2.125 5.625 -2 2 C-1.34 1.34 -0.68 0.68 0 0 Z " fill="#081B4C" transform="translate(767,199)"/>
<path d="M0 0 C0 0.66 0 1.32 0 2 C-0.99 2 -1.98 2 -3 2 C-3 2.66 -3 3.32 -3 4 C-4.65 4.33 -6.3 4.66 -8 5 C-8.33 4.34 -8.66 3.68 -9 3 C-2.25 0 -2.25 0 0 0 Z " fill="#14224A" transform="translate(881,133)"/>
<path d="M0 0 C2.8125 -0.25 2.8125 -0.25 6 0 C7.875 2 7.875 2 9 4 C3.46153846 3.38461538 3.46153846 3.38461538 1.125 1.4375 C0.75375 0.963125 0.3825 0.48875 0 0 Z " fill="#09153B" transform="translate(234,106)"/>
<path d="M0 0 C0.598125 0.763125 1.19625 1.52625 1.8125 2.3125 C3.46959332 4.3483575 5.10297674 6.1978279 7 8 C6.01 8.495 6.01 8.495 5 9 C2.5 6.75 2.5 6.75 0 4 C0 2.68 0 1.36 0 0 Z " fill="#182242" transform="translate(878,212)"/>
</svg>
